<?xml version="1.0" encoding="UTF-8"?>
<!DOCTYPE svg PUBLIC "-//W3C//DTD SVG 1.1//EN" "http://www.w3.org/Graphics/SVG/1.1/DTD/svg11.dtd">
<!-- Creator: CorelDRAW X8 -->
<svg xmlns="http://www.w3.org/2000/svg" xml:space="preserve" width="50.7998mm" height="12.5306mm" version="1.1" style="shape-rendering:geometricPrecision; text-rendering:geometricPrecision; image-rendering:optimizeQuality; fill-rule:evenodd; clip-rule:evenodd"
viewBox="0 0 5080 1253"
 xmlns:xlink="http://www.w3.org/1999/xlink">
 <defs>
  <style type="text/css">
   <![CDATA[
    .fil0 {fill:#2B2A29;fill-rule:nonzero}
    .fil2 {fill:#E5097F;fill-rule:nonzero}
    .fil1 {fill:black;fill-rule:nonzero}
   ]]>
  </style>
 </defs>
 <g id="Layer_x0020_1">
  <metadata id="CorelCorpID_0Corel-Layer"/>
  <path class="fil0" d="M4737 1126c79,0 155,-87 200,-326 51,-45 102,-107 139,-201 3,-8 4,-14 4,-18 0,-7 -2,-10 -6,-10 -5,0 -13,7 -18,18 -30,63 -68,109 -108,146 64,-369 81,-380 81,-408 0,-23 -29,-39 -54,-39 -17,0 -33,8 -37,25 0,0 -12,54 -28,129 -45,173 -65,289 -119,289 -15,0 -21,-14 -21,-38 0,-39 21,-134 41,-222 12,-55 28,-106 28,-141 0,-26 -30,-45 -56,-45 -18,0 -33,8 -36,28 -16,87 -45,189 -61,277 -29,46 -80,155 -119,155 -15,0 -21,-16 -21,-42 0,-72 47,-228 86,-361 73,-8 111,-19 111,-33 0,-14 -47,-17 -96,-21 11,-40 26,-84 26,-110 0,-34 -27,-50 -52,-50 -19,0 -37,8 -42,25 -13,42 -25,85 -37,130 -16,-1 -32,-1 -47,-1 -11,0 -18,16 -18,31 0,13 5,27 17,28l32 3c-22,89 -40,177 -50,247 -14,27 -73,149 -108,149 -9,0 -13,-9 -13,-27 0,-69 84,-351 84,-392 0,-26 -21,-41 -43,-41 -24,0 -48,15 -55,48 -46,209 -84,403 -142,403 -15,0 -23,-15 -23,-42 0,-65 38,-199 70,-359 1,-4 1,-8 1,-11 0,-24 -21,-37 -43,-37 -24,0 -50,14 -55,45 -14,85 -39,181 -52,265 -47,96 -78,148 -99,148 -9,0 -14,-10 -14,-25 0,-48 35,-157 63,-285 1,-5 1,-10 1,-15 0,-37 -31,-58 -56,-58l-6 0c-2,-32 -27,-75 -67,-75 -99,0 -178,164 -199,308 -26,41 -78,149 -173,149 -63,0 -67,-76 -67,-120 14,4 27,6 39,6 106,0 179,-136 179,-233 0,-49 -19,-88 -61,-93 -13,-10 -36,-17 -58,-17 -106,0 -192,195 -192,345 0,95 35,174 122,174 95,0 160,-61 205,-145l0 7c0,78 23,137 78,137 32,0 70,-43 103,-112 -1,7 -1,14 -1,19 0,76 38,93 69,93 51,0 96,-71 124,-130 0,7 0,15 0,22 0,65 19,108 75,108 42,0 75,-32 102,-85 2,69 38,85 69,85 56,0 104,-74 134,-133 -1,11 -1,21 -1,29 0,76 33,104 72,104 56,0 106,-73 137,-133 -1,10 -1,19 -1,27 0,64 20,106 81,106 42,0 76,-31 102,-86 -6,36 -11,69 -15,99 -101,62 -208,104 -208,215 0,55 53,98 103,98zm-1753 -848c41,-92 124,-146 203,-146 26,0 52,5 76,17l1 1c18,35 26,79 26,121 0,92 -38,186 -88,222 -9,-1 -17,-2 -27,-2 -20,0 -39,6 -39,21 0,13 20,17 42,17 8,0 16,-1 24,-2 23,21 33,52 33,87 0,77 -53,168 -135,168 -41,0 -80,-17 -108,-39 136,-44 153,-365 196,-506 1,-3 1,-6 1,-9 0,-25 -31,-45 -58,-45 -17,0 -32,7 -37,25 -57,172 -61,472 -130,513 -26,-23 -38,-45 -59,-45 -24,0 -47,23 -47,45 0,35 96,82 263,82 127,0 207,-98 207,-183 0,-45 -20,-86 -63,-109 75,-35 117,-115 117,-197 0,-140 -123,-231 -247,-231 -90,0 -179,43 -222,114 -5,8 -7,16 -7,25 0,34 33,71 57,71 9,0 16,-4 21,-15zm498 313c13,-120 79,-270 136,-270 16,0 18,18 18,34 0,78 -86,237 -145,237 -4,0 -6,0 -9,-1zm340 140c-12,0 -17,-19 -17,-49 0,-106 61,-341 129,-341 24,0 27,21 27,38l-32 145c-25,112 -70,207 -107,207zm881 363c-15,-9 -27,-22 -27,-44 0,-81 87,-129 158,-175 -8,67 -26,220 -121,220 -4,0 -7,0 -10,-1z"/>
  <path class="fil0" d="M2642 430c1,-5 1,-10 1,-15 0,-37 -30,-58 -55,-58l-6 0c-2,-32 -27,-75 -67,-75 -99,0 -178,164 -199,308 -35,70 -98,148 -151,148 -28,0 -40,-20 -40,-63 0,-30 5,-76 13,-128 3,0 5,1 8,1 116,0 197,-273 197,-417 0,-67 -18,-85 -43,-100 -7,-10 -22,-20 -40,-20 -107,0 -204,380 -218,584 -36,70 -97,143 -148,143 -28,0 -40,-20 -40,-63 0,-28 4,-70 11,-116 109,-26 189,-297 189,-423 0,-63 -25,-73 -40,-77 -10,-9 -24,-14 -39,-14 -91,9 -145,205 -183,406 -9,49 -16,97 -20,140 -27,43 -78,148 -172,148 -63,0 -67,-76 -67,-120 127,39 218,-119 218,-227 0,-49 -19,-88 -61,-93 -13,-10 -36,-17 -58,-17 -106,0 -192,195 -192,345 0,95 35,174 122,174 97,0 162,-62 207,-149 0,90 24,151 92,151 68,0 138,-80 179,-152 0,90 23,152 92,152 68,0 137,-79 178,-151 -1,52 6,148 78,148 32,0 70,-43 103,-112 -1,7 -1,14 -1,19 0,76 38,93 69,93 77,0 141,-165 155,-201 2,-5 9,-27 -2,-27 -5,0 -13,6 -18,17 -48,98 -79,151 -100,151 -9,0 -14,-10 -14,-25 0,-48 35,-157 62,-285zm-1605 -152c2,-4 4,-8 6,-13l0 0c1,-2 3,-5 4,-8l0 0 3 -4 0 0 2 -4c1,-2 3,-5 5,-7l0 0 2 -4 0 0 3 -4 2 -3 0 0 3 -4 0 0 2 -4 3 -3 3 -3 0 0 3 -4 3 -3 0 0 2 -3 0 0 3 -3 0 0 3 -3 0 0 3 -3 3 -3 0 0 3 -3 4 -3 0 0 3 -3 3 -3 0 0 3 -2 3 -3 0 0 4 -2 0 0 3 -3 3 -2 0 0 4 -3 0 0 3 -2 0 0 3 -2 4 -2 3 -2 4 -2 3 -2 0 0 4 -2 3 -2 4 -1 4 -2 3 -2 4 -1 3 -1 4 -2 4 -1 3 -1 4 -1 4 -1 4 -1 3 -1 4 -1 4 -1 3 0 4 -1 4 -1 4 0 3 0 4 -1 4 0 4 0 3 0 2 0 1 0 0 0 1 0 0 0 1 0 0 0 1 0 1 0 2 0 0 0 1 0 1 0 0 0 1 0 0 0 1 1 2 0 1 0 1 0 1 0 1 0 2 0 0 0 1 0 0 0 2 1 0 0 3 0 0 0 1 0 0 0 1 0 0 0 1 0 0 0 1 1 0 0 1 0 0 0 2 0 0 0 2 1 0 0 4 0 0 0 1 1 0 0 2 0 0 0 1 1 0 0 2 0 0 0 1 0 0 0 1 0 0 0 1 1 0 0 3 0 0 0 1 1 0 0 1 0 0 0 2 1 0 0 1 0 0 0 2 1 0 0 1 0 0 0 1 1 0 0 1 0 1 1 1 0 0 0 2 0 1 1 0 0 1 0 0 0 1 1 0 0 1 0 0 0 1 1 0 0 1 1 2 0 0 0 1 1 1 0 1 1 0 0 1 2 0 0 1 2 0 0 0 1 0 0 1 2 1 2 0 0 1 1 0 0 0 2 0 0 1 2 0 0 1 2 0 0 1 1 0 0 0 2 0 0 1 2 0 0 1 2 0 0 0 1 0 0 1 2 0 0 1 2 0 0 0 2 1 2 0 0 0 1 1 2 0 0 1 2 0 0 0 2 0 0 1 2 0 0 0 2 0 0 1 2 0 0 0 2 1 1 0 2 0 0 0 2 1 2 0 2 0 0 1 2 0 2 0 0 1 2 0 0 0 2 0 2 1 2 0 2 0 0 0 2 1 2 0 1 0 0 0 2 0 2 1 2 0 2 0 2 0 2 1 2 0 2 0 2 0 2 0 0 0 2 0 0 0 2 0 0 0 2 1 2 0 0 0 2 0 2 0 0 0 2 0 2 0 0 0 2 0 0 0 2 0 0 0 2 0 2 0 0 0 2 0 0 0 4 0 0 0 5 0 0 0 4 0 0 0 4 0 0 -1 5 0 0 0 4 0 0 0 4 0 0 -1 4 0 0 0 5 0 0 -1 4 0 4 0 0 -1 5 0 4 -1 4 -1 4 -1 4 -1 5 0 0 0 4 -1 4 -1 4 -1 4 0 0 -1 4 0 0 -2 4 0 0 -1 4 -1 4 -1 4 0 0 -1 4 -2 4 -1 4 -1 4 0 0 -2 3c-1,3 -2,5 -3,8l-1 3c-1,3 -2,5 -3,8l0 0 -2 3 -2 3 0 0 -1 4 0 0c-2,2 -3,4 -4,7l0 0 -2 3 0 0 -2 3 0 0 -1 3 0 0 -2 3 0 0c-2,2 -3,4 -4,6l-2 3c-1,2 -3,4 -4,6l0 0c-1,1 -3,3 -4,5l0 0 -2 3 -2 2 0 0 -2 2 -1 0 -2 3 0 0 -2 2 0 0 -2 2 0 0 -2 2 0 0 -2 2 -3 2 0 0 -2 2 0 0 -2 2 0 0 -3 2 0 0 0 0 0 0 0 0 0 0 -1 0 0 0 0 -1 0 0 -1 0 0 0 0 0 -1 0 0 0 0 0 0 0 0 0 0 0 -1 0 0 0 -1 0 0 0 0 0 0 0 -1 0 0 0 0 0 -1 0 0 0 0 0 0 0 0 0 -1 0 0 0 0 0 0 0 -1 0 0 0 -1 0 0 0 0 -1 0 0 -1 0 0 0 0 0 -1 0 0 0 0 0 -1 0 0 0 0 0 0 0 -1 0 0 0 0 0 0 0 0 0 -1 0 -1 0 0 0 0 0 -1 0 0 0 0 0 0 0 -1 0 0 0 -1 0 -1 0 0 0 0 0 0 0 0 0 0 0 -1 0 0 0 0 0 0 0 -1 0 0 0 -1 0 0 0 -1 0 0 0 -3 0 -1 0 -1 0 0 0 -1 0 0 0 -1 0 0 0 0 0 0 0 -1 0 0 0 -1 0 0 0 -1 0 0 0 -1 0 0 0 -1 0 0 0 -1 0 0 0 -1 0 0 0 -1 0 0 0 -1 1 0 0 -1 0 0 0 0 0 0 0 -1 0 0 0 -1 0 0 0 -1 0 0 0 -1 1 0 0 -1 0 0 0 0 0 0 0 -1 0 0 0 -1 0 0 0 -1 1 0 0 -1 0 0 0 0 0 0 0 -1 0 0 0 -1 1 0 0 -1 0 0 0 0 0 0 0 -1 1 0 0 -1 0 0 0 0 0 0 0 -1 1c-1,0 -2,1 -3,2l0 0 -2 1 0 0c-3,3 -5,7 -5,12 0,0 0,1 0,2l0 0 0 0 0 0c2,9 14,13 27,14l0 0 0 0c5,1 10,1 15,1 7,0 15,-1 22,-2l0 0 0 0 1 0 0 0 0 0 0 0 1 0 0 0 0 0 0 0 0 0 1 1 0 0 1 1 0 0 1 1 0 0 1 1 0 0 1 1 0 0 1 1 0 0 1 1 0 0 1 1 0 0 1 1 0 0 1 2 0 0 1 1 1 1 0 1 1 1 0 0 1 1 0 0 1 2 0 0 1 1 0 1 0 0 1 1 0 0 1 1 0 0 0 2 1 1 1 3 0 0 2 2 0 0 1 3 0 1 0 0 1 2 0 0 0 1 1 1 0 2 1 1 0 0 0 1 0 0 1 2 0 1 0 0 1 2 0 0 0 1 0 0 0 2 0 0 1 4 1 3 0 0 0 3c1,2 1,3 1,5l0 0 1 4 0 0 0 3 0 0 0 2 0 0 0 1 0 0 0 2 0 0 0 2 0 0 1 1 0 0 0 2 0 0 0 3 0 0 0 2 0 3 0 0 -1 4 0 0 0 4 0 0 0 3 0 0 0 4 0 0 -1 4 0 0 0 3 0 0 -1 4 0 0 0 4 0 0 -1 3 0 0 -1 4 0 0 -1 4 0 0 -1 4 0 0 -1 3 0 0 -1 4 0 0 -1 4 0 0 -1 3 0 0 -1 4 0 0 -2 3 0 0 -1 4 0 0 -1 3 -1 0 -1 4 0 0 -2 3 0 0 -1 4 0 0 -2 3 0 0 -2 4 0 0 -2 3 0 0 -2 3 0 0 -2 3 0 0 -2 4 0 0 -2 3 0 0 -2 3 0 0 -2 3 0 0 -2 3 0 0 -3 3 0 0 -2 2 0 0 -3 3 0 0 -2 3 0 0 -3 2 0 0 -2 3 0 0 -3 2 0 0 -3 3 0 0 -3 2 0 0 -2 2 0 0 -3 2 0 0 -3 3 0 0 -3 2 0 0 -3 1 0 0 -4 2 0 0 -3 2 0 0 -3 1 0 0 -3 2 0 0 -4 1 0 0 -3 1 0 1 -3 1 0 0 -4 1 0 0 -3 1 0 0 -4 0 0 0 -4 1 0 0 -3 1 0 0 -4 0 0 0 -4 0 0 0 -3 1 0 0 -4 0c-4,0 -8,0 -12,-1l0 0 -2 0 0 0 -1 0 0 0 -4 0 0 0 -2 -1 0 0 -2 0 0 0 -4 -1 -1 0 0 0 -2 0 0 0 -2 -1 0 0 -5 -1 -2 0 0 0 -2 -1 -2 0 0 0 -2 -1 0 0 -1 0 0 0 -2 -1 0 0 -2 0 0 0 -2 -1 0 0 -2 -1 -1 0 -2 -1 -2 0 -1 -1 0 0 -2 -1 0 0 -2 0 0 0 -2 -1 -1 -1 -2 -1 -2 0 0 0 -1 -1 0 0 -3 -2 -1 0 -3 -1 -1 -1 -2 -1 0 0 -1 -1 0 0 -2 -1 0 0 -2 0 0 0 -1 -1 -2 -1 0 0 -1 -1 -2 -1 0 0 -4 -3 0 0 -1 -1 0 0 -2 -1 0 0c-3,-2 -5,-4 -8,-6 2,0 4,-1 6,-2l0 0c2,-1 4,-2 6,-2l0 0c2,-1 4,-2 6,-4l0 0c2,-1 4,-2 6,-3l0 0c2,-1 4,-2 6,-4l0 0c2,-1 3,-2 5,-4l0 0c2,-1 4,-3 5,-4l0 0c2,-2 4,-4 6,-5l0 0c1,-2 3,-4 5,-5l0 0c1,-2 3,-4 4,-6l0 0c2,-2 4,-4 5,-6l0 0c2,-2 3,-4 5,-6l0 0c1,-2 3,-4 4,-6l0 0c2,-2 3,-4 5,-7 1,-2 2,-4 4,-6 1,-3 3,-5 4,-8l0 0c1,-2 3,-4 4,-7l0 0c1,-2 2,-5 4,-7l0 0c1,-3 2,-6 3,-8l0 0c2,-3 3,-6 4,-8l0 0c1,-3 2,-6 3,-8l0 0 4 -9 0 0 3 -8 0 0 3 -9 0 0 3 -9 0 0c3,-6 5,-12 6,-18l0 0c2,-6 4,-13 6,-19l0 0 3 -9 0 0c1,-7 3,-13 5,-20l2 -9 3 -10 0 0 2 -10 0 0 2 -10 3 -10 0 0 2 -10 2 -10 0 0 2 -10 0 0c2,-10 4,-19 6,-29l0 0 2 -10 0 0 2 -10 2 -10 0 0 2 -9 1 -10 2 -9 0 0 2 -10 0 0 2 -9 0 0 2 -9 2 -9 0 0 1 -9 0 0 2 -8 0 0 2 -9 0 0 2 -8 0 0 2 -8 0 0c1,-5 2,-11 3,-16l0 0 2 -7 0 0c2,-5 3,-10 4,-14l0 0 2 -7 0 0 0 0 0 0 0 0 0 0 0 -1 0 0 0 0 1 0 0 0 0 0 0 0 0 0 0 0 0 0 0 0 0 0 0 0 0 0 0 -1 0 0 0 0 0 0 0 0 0 0 0 0 0 0 0 0 0 0 0 0 0 0 0 0 0 0 0 -1 0 0 0 0 0 0 0 0 0 0 0 0 0 0 0 0 0 0 0 0 0 0 0 0 0 0 0 -1 0 0 0 0 0 0 0 0 0 0 0 0 0 0 0 0 0 0 0 0 0 0 0 0 0 0 0 -1 0 0 0 0 0 0 0 0 0 0 0 0 0 0 0 0 0 0 0 0 0 0 0 0 0 -1 0 0 0 0 0 0 0 0 0 0 0 0 0 0 0 -1 0 0 0 0 0 0 0 -1 0 0 0 -1 0 0 0 -1 0 -1 0 -1 0 -1c-1,-13 -11,-24 -24,-31l-1 -1 0 0 -1 -1 0 0 -2 0 0 -1c-9,-4 -18,-6 -27,-6l-1 -1 -1 0 -1 0 -1 0c-8,1 -15,2 -22,6l0 0 -1 0 0 0 0 1 -1 0 0 1 -1 0 0 0 -1 0 0 1 0 0 -1 0 0 1 0 0 -1 1 0 0 -1 0 -1 1 0 0c-1,1 -1,2 -2,3l0 0c-1,1 -1,3 -2,4l0 0c-1,2 -2,3 -2,6l0 0 -3 8 0 0 -2 8 -1 0 -2 9 0 0 -2 8 0 0 -3 9 0 0 -2 9 0 0 -2 9 0 0 -2 9 0 0 -2 10 0 0 -2 9 0 0 -2 10 0 0 -2 9 0 0 -2 10 0 0 -2 10 0 0 -2 10 0 0 -2 10 0 0 -1 10 0 0 -2 10 0 0 -2 10 0 0 -1 10 -1 0 -1 10 0 0 -2 10 0 0 -1 10 0 0 -2 10 0 0 -2 10 0 0 -1 10 0 0 -2 10 0 0 -1 10 0 0 -2 10 0 0 -1 9 0 0 -2 10 0 0 -1 10 0 0 -2 9 0 0 -2 9 0 0 -1 10 0 0 -2 9 0 0 -1 9 0 0 -2 9 0 0 -2 8 0 0 -2 9 0 0 -1 8 0 0 -2 9 0 0 -2 8 0 0 -2 8 0 0 -2 7 -2 8 0 0 -2 7 0 0 -2 7 0 0 -2 7 0 0 -2 6 -2 6 0 0c-1,2 -2,4 -2,6l0 0 -3 6 0 0 -2 5 0 0c-1,2 -2,4 -3,6 0,1 -1,3 -2,4l0 0c-1,2 -2,4 -3,5l0 0c-1,1 -1,3 -2,4l0 0c-1,2 -2,3 -3,4l0 0c-1,1 -2,2 -3,4 -1,1 -2,2 -3,3 -1,1 -2,2 -3,3l0 0c-1,1 -2,1 -3,2 -1,1 -2,2 -3,2 -26,-23 -38,-45 -59,-45 -24,0 -47,23 -47,45 0,24 44,53 124,69 43,9 88,12 129,13l2 0 1 0 7 0 0 0 6 0 0 0 6 0 0 0 5 -1 0 0 6 0 0 0 6 -1 0 0 5 -1 0 0 6 0 0 0c3,-1 7,-2 11,-3l0 0 5 -1 0 0 5 -1 0 0 5 -2 0 0c3,-1 7,-2 10,-3l0 0 5 -2 0 0 5 -2 0 0 5 -2 4 -2c3,-1 6,-3 9,-4l5 -3 0 0 4 -2 0 0 4 -3 0 0 4 -3 4 -2 4 -3 4 -3 4 -3 0 0 4 -3 3 -3 0 0c3,-2 5,-4 7,-7l3 -3 0 0 4 -3 3 -4 3 -3 3 -4 3 -3 0 0 2 -4 0 0 3 -4 0 0 3 -4 0 0 2 -3 3 -4 2 -4 2 -4 2 -4 0 0 2 -4 0 0 2 -4 0 0 1 -4 0 0 2 -4 0 0 2 -4 1 -4 0 0 1 -4 2 -4 1 -4 0 0 1 -4 0 -4 1 -4 1 -4 0 0 0 -4 0 0 1 -4 0 -4 0 -4 0 -4 0 -2 0 -3 0 -2 0 -2 0 0 0 -2 0 0 0 -2 0 -2 -1 -2 0 -2 0 -2 0 -2 0 0 -1 -2 0 0 0 -2 -1 -2 0 -2 0 0 -1 -2 0 -2 0 0 -1 -2 0 -2 -1 -2 0 0 0 -2 0 0 -1 -1 -1 -2 0 0 0 -2 0 0 -1 -2 0 0 -1 -2 0 0 -1 -2 0 0 0 -2 -1 -1 -1 -2 -1 -2 0 0 -1 -2 0 0 -1 -1 -1 -2 0 0 -1 -2 0 0 -1 -2 0 0 -1 -1 -2 -2 -1 -2 0 0 -1 -1 -1 -2 0 0 -2 -1 0 0 -1 -2 -1 -2 -2 -1 0 0 -1 -2 0 0 -1 -1 0 0 -2 -2 -1 -1 -2 -2 -2 -1 -1 -1 -2 -2 -2 -1 -1 -1 -2 -2 -2 -1 -2 -1 -1 -1 -2 -2 -2 -1 -2 -1 -2 -1 -2 -1 3 -2 4 -2 0 0 3 -1 4 -2 3 -2 3 -2 0 0 3 -2 0 0 4 -2 3 -3 0 0 3 -2 3 -2 3 -2 3 -3 0 0 2 -2 0 0 3 -3 3 -2 3 -3 2 -3 3 -2 0 0 2 -3 3 -3 2 -3 0 0 3 -2 2 -3 2 -3 3 -3 2 -3 0 0 2 -3 2 -3 2 -4 2 -3 0 0 2 -3 1 -3 2 -4 0 0 2 -3 2 -3 1 -4 0 0 2 -3 0 0 1 -3 2 -4 0 0 1 -3 0 0 1 -4 2 -3 1 -4 1 -4 1 -3 1 -4 0 0 1 -3 1 -4 1 -4 0 0 1 -3 0 0 0 -4 1 -4 1 -4 0 -3 1 -4 0 -4 1 -4 0 -4 0 -3 0 -4 0 0 1 -4 0 -4 0 -4c0,-2 0,-4 0,-6l-1 -7c0,-2 0,-4 0,-6 0,-2 0,-4 -1,-6 0,-2 0,-4 0,-7 -1,-2 -1,-4 -1,-6l-2 -6c0,-2 0,-4 -1,-6l-1 -6 0 0 -2 -6 0 0 -2 -5 -1 -6 -2 -6 0 0 -3 -5 -2 -6 -2 -5 0 0c-1,-2 -2,-3 -3,-5l0 0 -3 -5 0 0 -3 -5 -3 -5 0 0 -3 -5 0 0 -3 -5 -3 -5 0 0 -4 -4 0 0c-1,-2 -2,-3 -3,-5l0 0 -4 -4 -4 -5 0 0 -4 -4 -4 -4 -4 -4 -4 -4 0 0 -4 -4 -5 -4 0 0 -4 -3 -5 -4 -4 -3 0 0 -5 -4 0 0 -5 -3 0 0 -5 -3 0 0 -5 -3 0 0 -5 -3 -5 -3 -5 -2 0 0 -5 -3 0 0 -5 -2 -5 -3 0 0 -6 -2 0 0 -5 -2 0 0 -6 -2 0 0 -5 -2 0 0 -6 -1 0 0 -5 -2 0 0 -6 -1 -6 -2 0 0 -5 -1 0 0 -6 -1 0 0 -6 -1 0 0 -5 -1 0 0 -6 -1 0 0 -6 0 0 0 -6 -1 0 0 -5 0 0 0 -6 0 0 0 -6 0 0 0 -4 0 0 0 -4 0 0 0 -5 0 0 0 -4 0 0 0 -4 0 0 0 -4 1 0 0 -4 0 0 0 -5 1 0 0 -4 0 0 0c-3,1 -5,1 -8,1l0 0 -4 1 0 0 -4 1 0 0 -4 1 0 0 -4 1 -1 0 -4 1 0 0 -4 1 0 0 -4 1 0 0 -4 1 0 0 -4 1 0 0 -4 1 0 0 -4 1 0 0 -4 2 0 0 -3 1 0 0 -4 2 0 0 -4 1c-3,1 -5,2 -8,3l0 0 -4 2 0 0 -3 2 0 0 -4 1 0 0 -4 2 -3 2 0 0 -4 2 -3 2 0 0c-3,1 -5,3 -7,4l0 0 -4 2 0 0c-3,2 -7,5 -10,7l0 0 -3 2 0 0 -3 2 0 0c-3,2 -5,4 -7,5l0 0 -3 3 0 0 -3 2 0 0 -3 3 0 0 -3 3 0 0 -3 2 -2 3 0 0 -3 3 -3 3 -3 3 0 0 -2 2 0 0 -3 3 0 0 -2 3 0 0 -3 3 0 0 -2 4 0 0 -2 3 -2 3 0 0 -3 3 -2 3 0 0 -2 4 0 0c-5,8 -7,16 -7,25 0,6 1,12 3,17l0 0 1 3 0 0 0 1 0 1 1 2 0 0 1 1 0 2c6,13 15,24 24,33l1 0 1 1 0 0 1 1 1 0 0 0 1 1 1 1 0 0 2 1 0 0 1 1 1 0 0 0 1 1 0 0 0 0 1 0c1,1 2,1 3,2l0 0 1 0 1 0 1 1 1 0c5,1 9,2 14,0 6,-1 11,-5 15,-14zm498 313c13,-120 79,-270 136,-270 16,0 18,18 18,34 0,78 -86,237 -145,237 -4,0 -6,0 -9,-1zm466 -506c15,121 -54,354 -132,446 30,-178 94,-421 132,-446zm283 -32c18,126 -49,385 -142,470 33,-191 106,-456 142,-470zm134 678c-53,0 25,-390 112,-390 24,0 27,21 27,38l-32 145c-26,112 -70,207 -107,207z"/>
  <path class="fil1" d="M701 475c-32,61 -43,134 -42,191 2,69 45,121 11,176 -10,17 -20,28 -46,40 -13,5 -28,20 -28,20 157,-46 118,-96 101,-184 -12,-50 -27,-173 4,-243z"/>
  <path class="fil1" d="M577 834c-31,-17 -102,-35 -102,19 19,-6 37,-16 102,-19z"/>
  <path class="fil1" d="M487 277c0,0 33,45 49,0 17,-44 -24,-75 -24,-75 -224,-189 -236,-161 -500,-137 -1,0 -2,3 0,3 272,27 290,-14 475,209z"/>
  <path class="fil1" d="M371 539c-9,-17 -13,-40 -9,-61 -2,6 -2,11 -4,18 -2,23 22,59 13,43zm-269 -200c-1,-1 -1,-2 -2,-2 -31,22 -73,9 -100,-18 27,19 67,28 90,4 -25,-35 -49,-78 -72,-130 263,-30 408,170 408,170 -117,-87 -233,-70 -233,-70 74,156 261,175 261,175 -25,4 -49,6 -73,7 -1,1 -2,1 -3,2 -12,25 -10,55 1,74 0,0 -1,-1 -2,-3 2,4 3,6 3,6 -32,-34 -35,-44 -34,-79l0 0c-5,18 -7,37 -6,53 -5,-16 -8,-35 -8,-54 -4,-1 -7,-1 -11,-1 -12,32 -10,67 2,94 -16,-25 -24,-60 -18,-97 -2,0 -3,0 -4,0l-13 59 0 -62 -2 -1c-14,29 -23,59 -25,87 -3,-27 -1,-57 8,-89 -8,15 -13,31 -15,46 -2,-16 -2,-34 2,-52l0 0c-20,28 -55,45 -87,57 27,-15 57,-36 72,-63 -2,-1 -4,-2 -7,-3 -13,20 -35,35 -54,41 17,-9 33,-27 41,-47 -2,-1 -4,-2 -6,-3 -30,51 -89,57 -135,33 37,14 95,11 117,-33 -11,9 -22,11 -30,10 10,-2 21,-10 26,-23l-1 -1c-16,14 -35,21 -53,22 16,-5 31,-16 41,-30 0,-1 -1,-1 -2,-2 -35,37 -78,38 -125,24 43,7 84,4 113,-34l-2 -1c-14,13 -26,20 -63,16 36,-4 43,-13 52,-26l-1 0c-28,23 -76,30 -116,2 41,22 83,11 106,-12 -3,-3 -5,-5 -8,-8 -12,10 -28,20 -44,21 13,-5 25,-16 33,-27 -18,7 -49,29 -91,12 13,3 33,2 50,-5 17,-7 20,-13 34,-21 -2,-2 -3,-4 -5,-6 -42,22 -82,12 -100,-2 18,10 56,15 91,-10z"/>
  <path class="fil2" d="M493 1015l51 41 45 -7c22,7 46,51 29,82 -21,38 -90,-4 -107,-8 -11,-3 -34,-4 -47,-4 -26,-1 -107,-34 -124,-45 0,0 84,78 238,105 -10,32 -42,64 -83,63 -46,-1 -108,-13 -154,-70 -68,-85 -92,-147 -92,-147 106,9 181,-13 224,-17 10,0 12,2 20,7z"/>
  <path class="fil0" d="M1170 1000l0 143 -135 -147 -4 0 0 208 28 0 0 -140 135 144 4 0 0 -208 -28 0zm220 204l31 0 -91 -207 -4 0 -90 207 31 0 18 -43 87 0 18 43zm-94 -70l32 -79 33 79 -65 0zm256 -134l-130 0 0 27 51 0 0 177 28 0 0 -177 51 0 0 -27zm118 -23l35 -49 -30 0 -28 49 23 0zm-9 230c45,0 71,-29 71,-72l0 -135 -27 0 0 132c0,32 -17,48 -44,48 -26,0 -43,-16 -43,-48l0 -132 -28 0 0 135c0,43 27,72 71,72zm229 -3l31 0 -49 -82c26,-9 41,-33 41,-59 0,-33 -24,-63 -66,-63l-55 0 0 204 27 0 0 -79 26 0 45 79zm-71 -177l27 0c23,0 39,14 39,36 0,21 -16,36 -39,36l-27 0 0 -72zm472 177l-84 -100 81 -104 -33 0 -78 101 0 -101 -28 0 0 204 28 0 0 -94 79 94 35 0zm132 4c64,0 105,-49 105,-106 0,-57 -41,-106 -105,-106 -63,0 -105,49 -105,106 0,57 42,106 105,106zm0 -28c-46,0 -76,-36 -76,-78 0,-42 30,-78 76,-78 46,0 77,36 77,78 0,42 -31,78 -77,78zm267 -180l-126 0 0 27 85 0 -86 173 0 4 124 0 0 -27 -83 0 86 -174 0 -3zm259 204l-47 -208 -4 0 -64 156 -65 -156 -4 0 -45 208 29 0 26 -130 57 132 3 0 58 -133 28 131 28 0zm157 -177l0 -27 -112 0 0 204 112 0 0 -27 -85 0 0 -64 65 0 0 -26 -65 0 0 -60 85 0zm163 -27l-130 0 0 27 52 0 0 177 28 0 0 -177 50 0 0 -27zm44 204l28 0 0 -204 -28 0 0 204zm234 0l-84 -100 81 -104 -33 0 -78 101 0 -101 -28 0 0 204 28 0 0 -94 79 94 35 0zm108 3c45,0 71,-29 71,-72l0 -135 -27 0 0 132c0,32 -17,48 -44,48 -26,0 -43,-16 -43,-48l0 -132 -27 0 0 135c0,43 26,72 70,72zm340 -3l-47 -208 -4 0 -64 156 -65 -156 -4 0 -45 208 29 0 26 -130 57 132 3 0 58 -133 28 131 28 0zm139 4c64,0 105,-49 105,-106 0,-57 -41,-106 -105,-106 -63,0 -105,49 -105,106 0,57 42,106 105,106zm0 -28c-46,0 -76,-36 -76,-78 0,-42 30,-78 76,-78 46,0 78,36 78,78 0,42 -32,78 -78,78zm304 24l-84 -100 82 -104 -33 0 -79 101 0 -101 -28 0 0 204 28 0 0 -94 80 94 34 0z"/>
 </g>
</svg>
